# This file uses centimeters as units for non-parametric coordinates.

mtllib Plate.mtl
g default
v 4.539608 -0.000000 -1.495417
v 3.857205 -0.000000 -2.834708
v 2.794338 -0.000000 -3.897575
v 1.455046 -0.000000 -4.579977
v -0.029569 -0.000000 -4.815117
v -1.514184 -0.000000 -4.579977
v -2.853475 -0.000000 -3.897574
v -3.916342 -0.000000 -2.834707
v -4.598744 -0.000000 -1.495416
v -4.833883 -0.000000 -0.010801
v -4.598744 -0.000000 1.473814
v -3.916341 -0.000000 2.813104
v -2.853474 -0.000000 3.875971
v -1.514184 -0.000000 4.558373
v -0.029569 -0.000000 4.793513
v 1.455046 -0.000000 4.558373
v 2.794336 -0.000000 3.875970
v 3.857203 -0.000000 2.813104
v 4.539605 -0.000000 1.473813
v 4.774745 -0.000000 -0.010801
v 4.539608 0.236824 -1.495417
v 3.857205 0.236824 -2.834708
v 2.794338 0.236824 -3.897575
v 1.455046 0.236824 -4.579977
v -0.029569 0.236824 -4.815117
v -1.514184 0.236824 -4.579977
v -2.853475 0.236824 -3.897574
v -3.916342 0.236824 -2.834707
v -4.598744 0.236824 -1.495416
v -4.833883 0.236824 -0.010801
v -4.598744 0.236824 1.473814
v -3.916341 0.236824 2.813104
v -2.853474 0.236824 3.875971
v -1.514184 0.236824 4.558373
v -0.029569 0.236824 4.793513
v 1.455046 0.236824 4.558373
v 2.794336 0.236824 3.875970
v 3.857203 0.236824 2.813104
v 4.539605 0.236824 1.473813
v 4.774745 0.236824 -0.010801
v -0.029569 -0.000000 -0.010801
v -0.029569 0.236824 -0.010801
vt 0.404347 0.625879
vt 0.404347 0.556721
vt 0.416576 0.556721
vt 0.416576 0.625879
vt 0.404347 0.501837
vt 0.416576 0.501837
vt 0.404347 0.702542
vt 0.416576 0.702542
vt 0.404347 0.779205
vt 0.416576 0.779205
vt 0.404347 0.848363
vt 0.416576 0.848363
vt 0.404347 0.903248
vt 0.416576 0.903248
vt 0.398701 0.501837
vt 0.398701 0.570995
vt 0.386472 0.570995
vt 0.386472 0.501837
vt 0.398701 0.647658
vt 0.386472 0.647658
vt 0.398701 0.724321
vt 0.386472 0.724321
vt 0.398701 0.793479
vt 0.386472 0.793479
vt 0.398701 0.848363
vt 0.386472 0.848363
vt 0.368597 0.848363
vt 0.368597 0.779205
vt 0.380826 0.779205
vt 0.380826 0.848363
vt 0.368597 0.702542
vt 0.380826 0.702542
vt 0.368597 0.625879
vt 0.380826 0.625879
vt 0.368597 0.556721
vt 0.380826 0.556721
vt 0.368597 0.501837
vt 0.380826 0.501837
vt 0.350722 0.793479
vt 0.350722 0.724320
vt 0.362951 0.724320
vt 0.362951 0.793479
vt 0.350722 0.647658
vt 0.362951 0.647658
vt 0.350722 0.570995
vt 0.362951 0.570995
vt 0.350722 0.501837
vt 0.362951 0.501837
vt 0.450624 0.104257
vt 0.485862 0.173415
vt 0.249919 0.250078
vt 0.498004 0.250078
vt 0.395740 0.049372
vt 0.485862 0.326741
vt 0.326582 0.014134
vt 0.450624 0.395899
vt 0.249919 0.001992
vt 0.395740 0.450783
vt 0.173256 0.014134
vt 0.326582 0.486021
vt 0.104098 0.049372
vt 0.249919 0.498163
vt 0.049213 0.104257
vt 0.173256 0.486021
vt 0.013975 0.173415
vt 0.104098 0.450783
vt 0.001833 0.250078
vt 0.049213 0.395899
vt 0.013975 0.326741
vt 0.906251 0.826585
vt 0.871013 0.895743
vt 0.670307 0.749922
vt 0.816129 0.950628
vt 0.918393 0.749922
vt 0.746970 0.985866
vt 0.906251 0.673259
vt 0.670307 0.998008
vt 0.871013 0.604101
vt 0.593645 0.985866
vt 0.816129 0.549217
vt 0.524486 0.950628
vt 0.746970 0.513979
vt 0.469602 0.895743
vt 0.670307 0.501837
vt 0.434364 0.826585
vt 0.593645 0.513979
vt 0.422222 0.749922
vt 0.524486 0.549217
vt 0.434364 0.673259
vt 0.469602 0.604101
vn 0.951057 0.000000 -0.309016
vn 0.809017 0.000000 -0.587785
vn 0.809017 0.000000 -0.587785
vn 0.951057 0.000000 -0.309016
vn 0.587785 0.000000 -0.809017
vn 0.587785 0.000000 -0.809017
vn 0.309017 0.000000 -0.951057
vn 0.309017 0.000000 -0.951057
vn -0.000000 0.000000 -1.000000
vn -0.000000 0.000000 -1.000000
vn -0.309017 0.000000 -0.951057
vn -0.309017 0.000000 -0.951057
vn -0.587785 0.000000 -0.809017
vn -0.587785 0.000000 -0.809017
vn -0.809017 0.000000 -0.587785
vn -0.809017 0.000000 -0.587785
vn -0.951057 0.000000 -0.309017
vn -0.951057 0.000000 -0.309017
vn -1.000000 0.000000 0.000000
vn -1.000000 0.000000 0.000000
vn -0.951057 0.000000 0.309017
vn -0.951057 0.000000 0.309017
vn -0.809017 0.000000 0.587785
vn -0.809017 0.000000 0.587785
vn -0.587785 0.000000 0.809017
vn -0.587785 0.000000 0.809017
vn -0.309017 0.000000 0.951057
vn -0.309017 0.000000 0.951057
vn -0.000000 0.000000 1.000000
vn -0.000000 0.000000 1.000000
vn 0.309017 0.000000 0.951057
vn 0.309017 0.000000 0.951057
vn 0.587785 0.000000 0.809017
vn 0.587785 0.000000 0.809017
vn 0.809017 0.000000 0.587785
vn 0.809017 0.000000 0.587785
vn 0.951057 0.000000 0.309017
vn 0.951057 0.000000 0.309017
vn 1.000000 0.000000 0.000001
vn 1.000000 0.000000 0.000001
vn 0.000000 -1.000000 0.000000
vn 0.000000 -1.000000 0.000000
vn 0.000000 -1.000000 -0.000000
vn 0.000000 -1.000000 0.000000
vn 0.000000 -1.000000 0.000000
vn 0.000000 -1.000000 0.000000
vn 0.000000 -1.000000 0.000000
vn 0.000000 -1.000000 0.000000
vn 0.000000 -1.000000 0.000000
vn 0.000000 -1.000000 0.000000
vn 0.000000 -1.000000 0.000000
vn 0.000000 -1.000000 0.000000
vn 0.000000 -1.000000 0.000000
vn 0.000000 -1.000000 0.000000
vn 0.000000 -1.000000 -0.000000
vn 0.000000 -1.000000 -0.000000
vn 0.000000 -1.000000 0.000000
vn 0.000000 -1.000000 0.000000
vn 0.000000 -1.000000 0.000000
vn 0.000000 -1.000000 0.000000
vn 0.000000 -1.000000 0.000000
vn 0.000000 1.000000 0.000000
vn 0.000000 1.000000 0.000000
vn 0.000000 1.000000 0.000000
vn 0.000000 1.000000 0.000000
vn 0.000000 1.000000 0.000000
vn 0.000000 1.000000 0.000000
vn 0.000000 1.000000 0.000000
vn 0.000000 1.000000 0.000000
vn 0.000000 1.000000 0.000000
vn 0.000000 1.000000 0.000000
vn 0.000000 1.000000 0.000000
vn 0.000000 1.000000 0.000000
vn 0.000000 1.000000 0.000000
vn 0.000000 1.000000 0.000000
vn 0.000000 1.000000 0.000000
vn 0.000000 1.000000 0.000000
vn 0.000000 1.000000 0.000000
vn 0.000000 1.000000 0.000000
vn 0.000000 1.000000 0.000000
vn 0.000000 1.000000 0.000000
vn 0.000000 1.000000 0.000000
s 1
g pCylinder1
usemtl lambert2SG
f 1/1/1 2/2/2 22/3/3 21/4/4
f 2/2/2 3/5/5 23/6/6 22/3/3
f 3/15/5 4/16/7 24/17/8 23/18/6
f 4/16/7 5/19/9 25/20/10 24/17/8
f 5/19/9 6/21/11 26/22/12 25/20/10
f 6/21/11 7/23/13 27/24/14 26/22/12
f 7/23/13 8/25/15 28/26/16 27/24/14
f 8/27/15 9/28/17 29/29/18 28/30/16
f 9/28/17 10/31/19 30/32/20 29/29/18
f 10/31/19 11/33/21 31/34/22 30/32/20
f 11/33/21 12/35/23 32/36/24 31/34/22
f 12/35/23 13/37/25 33/38/26 32/36/24
f 13/39/25 14/40/27 34/41/28 33/42/26
f 14/40/27 15/43/29 35/44/30 34/41/28
f 15/43/29 16/45/31 36/46/32 35/44/30
f 16/45/31 17/47/33 37/48/34 36/46/32
f 17/13/33 18/11/35 38/12/36 37/14/34
f 18/11/35 19/9/37 39/10/38 38/12/36
f 19/9/37 20/7/39 40/8/40 39/10/38
f 20/7/39 1/1/1 21/4/4 40/8/40
s 2
f 2/49/41 1/50/42 41/51/43
f 3/53/44 2/49/41 41/51/43
f 4/55/45 3/53/44 41/51/43
f 5/57/46 4/55/45 41/51/43
f 6/59/47 5/57/46 41/51/43
f 7/61/48 6/59/47 41/51/43
f 8/63/49 7/61/48 41/51/43
f 9/65/50 8/63/49 41/51/43
f 10/67/51 9/65/50 41/51/43
f 11/69/52 10/67/51 41/51/43
f 12/68/53 11/69/52 41/51/43
f 13/66/54 12/68/53 41/51/43
f 14/64/55 13/66/54 41/51/43
f 15/62/56 14/64/55 41/51/43
f 16/60/57 15/62/56 41/51/43
f 17/58/58 16/60/57 41/51/43
f 18/56/59 17/58/58 41/51/43
f 19/54/60 18/56/59 41/51/43
f 20/52/61 19/54/60 41/51/43
f 1/50/42 20/52/61 41/51/43
s 3
f 21/70/62 22/71/63 42/72/64
f 22/71/63 23/73/65 42/72/64
f 23/73/65 24/75/66 42/72/64
f 24/75/66 25/77/67 42/72/64
f 25/77/67 26/79/68 42/72/64
f 26/79/68 27/81/69 42/72/64
f 27/81/69 28/83/70 42/72/64
f 28/83/70 29/85/71 42/72/64
f 29/85/71 30/87/72 42/72/64
f 30/87/72 31/89/73 42/72/64
f 31/89/73 32/90/74 42/72/64
f 32/90/74 33/88/75 42/72/64
f 33/88/75 34/86/76 42/72/64
f 34/86/76 35/84/77 42/72/64
f 35/84/77 36/82/78 42/72/64
f 36/82/78 37/80/79 42/72/64
f 37/80/79 38/78/80 42/72/64
f 38/78/80 39/76/81 42/72/64
f 39/76/81 40/74/82 42/72/64
f 40/74/82 21/70/62 42/72/64
